<?xml version="1.0" standalone="no"?>
<!DOCTYPE svg PUBLIC "-//W3C//DTD SVG 20010904//EN"
 "http://www.w3.org/TR/2001/REC-SVG-20010904/DTD/svg10.dtd">
<svg version="1.0" xmlns="http://www.w3.org/2000/svg"
 width="256.000000pt" height="256.000000pt" viewBox="0 0 256.000000 256.000000"
 preserveAspectRatio="xMidYMid meet">
<metadata>
Created by potrace 1.11, written by Peter Selinger 2001-2013
</metadata>
<g transform="translate(0.000000,256.000000) scale(0.100000,-0.100000)"
fill="#000000" stroke="none">
<path d="M0 1280 l0 -1280 1280 0 1280 0 0 1280 0 1280 -1280 0 -1280 0 0
-1280z m350 -30 c13 -8 16 -60 20 -337 5 -303 7 -331 25 -367 27 -53 63 -78
122 -83 99 -10 199 42 264 138 58 84 69 138 69 342 l0 177 -84 0 c-98 0 -116
11 -116 68 0 65 3 67 164 70 93 2 152 -1 165 -8 21 -11 21 -17 21 -395 l0
-385 57 0 c69 0 93 -18 93 -68 0 -63 -18 -72 -140 -72 -136 0 -143 4 -148 98
l-4 70 -62 -62 c-37 -38 -85 -74 -121 -92 -53 -26 -70 -29 -155 -29 -84 0
-101 3 -147 27 -57 31 -91 69 -125 144 -22 47 -23 62 -26 342 l-3 292 -50 0
c-75 0 -89 11 -89 70 0 36 5 52 18 59 22 13 232 14 252 1z m2068 -6 c36 -25
30 -76 -16 -127 -21 -23 -148 -163 -282 -312 -134 -148 -257 -285 -274 -303
l-30 -32 242 0 242 0 0 104 c0 120 6 129 77 129 69 0 73 -10 73 -187 0 -125
-3 -152 -17 -168 -15 -17 -41 -18 -415 -18 -256 0 -406 4 -419 10 -14 8 -19
21 -19 54 0 42 5 48 305 380 168 185 305 339 305 341 0 3 -99 5 -220 5 l-220
0 0 -83 c0 -107 -12 -127 -79 -127 -26 0 -52 5 -59 12 -8 8 -12 59 -12 165 0
134 2 153 18 162 11 7 158 11 397 11 329 0 384 -2 403 -16z"/>
</g>
</svg>
